<svg id="yxjk_icon_danga" xmlns="http://www.w3.org/2000/svg" width="193.97" height="121.4" viewBox="0 0 193.97 121.4">
  <defs>
    <style>
      .cls-1, .cls-2 {
        fill: #fff;
        fill-rule: evenodd;
        opacity: 0.12;
      }

      .cls-1 {
        fill-opacity: 0.5;
        stroke: #fff;
        stroke-width: 3px;
      }
    </style>
  </defs>
  <path fill='#fff' opacity='0.12' stroke='#fff' stroke-width='3px' class="cls-1" d="M6458.13,3109.1h70.28v115.32h-60.28a10,10,0,0,1-10-10V3109.1Zm21.62,14.75h25.99a2.006,2.006,0,0,1,2,2v25.96a2.006,2.006,0,0,1-2,2h-25.99a2.006,2.006,0,0,1-2-2v-25.96A2.006,2.006,0,0,1,6479.75,3123.85Zm7.69,58.28h10.64a8,8,0,0,1,8,8v31.98h-26.64v-31.98A8,8,0,0,1,6487.44,3182.13Z" transform="translate(-6425.84 -3104.63)"/>
  <path fill='#fff' opacity='0.12' stroke='#fff' stroke-width='3px' class="cls-1" d="M6522.73,3134.6l66.62,24.98v48.3a16.659,16.659,0,0,1-16.66,16.65h-49.96V3134.6Zm33.3,47.4s9,12.55,9,17.33a9.006,9.006,0,0,1-18,0C6547.03,3194.55,6556.03,3182,6556.03,3182Z" transform="translate(-6425.84 -3104.63)"/>
  <path fill='#fff' opacity='0.12' class="cls-2" d="M6453.62,3104.62h76.59a4.165,4.165,0,0,1,0,8.33h-76.59A4.165,4.165,0,0,1,6453.62,3104.62Z" transform="translate(-6425.84 -3104.63)"/>
  <path fill='#fff' opacity='0.12' class="cls-2" d="M6434.49,3221h176.67a9.71,9.71,0,0,1,3.85,1.41l3.32,2c1.45,0.87,1.93,1.59,1.02,1.59H6426.29c-0.9,0-.42-0.72,1.03-1.59l3.32-2A9.658,9.658,0,0,1,6434.49,3221Z" transform="translate(-6425.84 -3104.63)"/>
  <path fill='#fff' opacity='0.12' class="cls-2" d="M6521.64,3128.77l71.17,28.33a4.165,4.165,0,0,1-3.08,7.74l-71.17-28.33A4.165,4.165,0,1,1,6521.64,3128.77Z" transform="translate(-6425.84 -3104.63)"/>
</svg>