<svg id="icon_bf_location" xmlns="http://www.w3.org/2000/svg" width="60" height="60" viewBox="0 0 60 60">
  <path fill='#ff9600' class="cls-1" d="M8106.19,3514.17c-7.66,6.95-10.19,12.6-10.19,12.6s-1.63-5.72-10.19-12.6a23.289,23.289,0,0,1-13.83-21.11c0-12.88,10.76-23.33,24.02-23.33s24.02,10.45,24.02,23.33A23.289,23.289,0,0,1,8106.19,3514.17Z" transform="translate(-8066 -3468.25)"/>
  <path fill='#fff' class="cls-2" d="M8096,3504.86a11.255,11.255,0,1,1,11.26-11.25A11.256,11.256,0,0,1,8096,3504.86Zm3.39-14.42a7.117,7.117,0,0,0-3.1-1.53c0.06,0.44.21,1.05,0.24,1.6a4.7,4.7,0,0,0-3.98.97,3.39,3.39,0,0,0,.06,5.28,7.117,7.117,0,0,0,3.1,1.53c-0.06-.44-0.21-1.05-0.24-1.6a4.7,4.7,0,0,0,3.98-.97A3.39,3.39,0,0,0,8099.39,3490.44Z" transform="translate(-8066 -3468.25)"/>
</svg>