<?xml version="1.0" standalone="no"?><!DOCTYPE svg PUBLIC "-//W3C//DTD SVG 1.1//EN" "http://www.w3.org/Graphics/SVG/1.1/DTD/svg11.dtd"><svg t="1648525603117" class="icon" viewBox="0 0 1024 1024" version="1.1" xmlns="http://www.w3.org/2000/svg" p-id="17462" xmlns:xlink="http://www.w3.org/1999/xlink" width="200" height="200"><defs><style type="text/css">@font-face { font-family: feedback-iconfont; src: url("//at.alicdn.com/t/font_1031158_u69w8yhxdu.woff2?t=1630033759944") format("woff2"), url("//at.alicdn.com/t/font_1031158_u69w8yhxdu.woff?t=1630033759944") format("woff"), url("//at.alicdn.com/t/font_1031158_u69w8yhxdu.ttf?t=1630033759944") format("truetype"); }
</style></defs><path d="M576 78.112v33.318c0 21.608 14.562 40.318 35.372 46.132C766.408 200.868 880 343.036 880 512c0 203.378-164.59 368-368 368-203.378 0-368-164.59-368-368 0-168.94 113.572-311.128 268.624-354.438C433.438 151.748 448 133.034 448 111.424V78.128c0-31.418-29.668-54.306-60.092-46.468C173.206 86.964 14.788 282.412 16.006 514.664c1.44 274.104 222.954 493.912 497.062 493.334C786.51 1007.422 1008 785.576 1008 512c0-231.266-158.28-425.558-372.422-480.472C605.356 23.778 576 46.912 576 78.112z" p-id="17463" fill="#1296db"></path></svg>