<svg xmlns="http://www.w3.org/2000/svg" width="48.36" height="48.36" viewBox="0 0 48.36 48.36">
  <g id="泵房-停止02" transform="translate(-385.526 -887.535)">
    <rect id="矩形_25" data-name="矩形 25" width="33.51" height="33.51" rx="2" transform="translate(386 911.695) rotate(-45)" fill="#d1d5e2" opacity="0.2"/>
    <path id="路径_18" data-name="路径 18" d="M5,19.26,1.49,22.82a1.67,1.67,0,0,0,0,2.36L5,28.74" transform="translate(385.687 887.695)" fill="none" stroke="#d1d5e2" stroke-miterlimit="10" stroke-width="2"/>
    <path id="路径_19" data-name="路径 19" d="M28.74,5,25.18,1.49a1.67,1.67,0,0,0-2.36,0L19.26,5" transform="translate(385.687 887.695)" fill="none" stroke="#d1d5e2" stroke-miterlimit="10" stroke-width="2"/>
    <path id="路径_20" data-name="路径 20" d="M19.26,43l3.56,3.55a1.67,1.67,0,0,0,2.36,0L28.74,43" transform="translate(385.687 887.695)" fill="none" stroke="#d1d5e2" stroke-miterlimit="10" stroke-width="2"/>
    <path id="路径_21" data-name="路径 21" d="M43,28.74l3.55-3.56a1.67,1.67,0,0,0,0-2.36L43,19.26" transform="translate(385.687 887.695)" fill="none" stroke="#d1d5e2" stroke-miterlimit="10" stroke-width="2"/>
    <g id="泵房02" transform="translate(385.687 887.695)">
      <rect id="矩形_26" data-name="矩形 26" width="24.96" height="24.96" rx="2" transform="translate(6.352 24) rotate(-45)" fill="#d1d5e2" opacity="0.2"/>
      <line id="直线_13" data-name="直线 13" x1="5.51" y1="5.51" transform="translate(30.07 12.42)" fill="none" stroke="#d1d5e2" stroke-miterlimit="10" stroke-width="1"/>
      <line id="直线_14" data-name="直线 14" y1="5.51" x2="5.51" transform="translate(30.07 30.07)" fill="none" stroke="#d1d5e2" stroke-miterlimit="10" stroke-width="1"/>
      <line id="直线_15" data-name="直线 15" x2="5.51" y2="5.51" transform="translate(12.42 30.07)" fill="none" stroke="#d1d5e2" stroke-miterlimit="10" stroke-width="1"/>
      <line id="直线_16" data-name="直线 16" x1="5.51" y2="5.51" transform="translate(12.42 12.42)" fill="none" stroke="#d1d5e2" stroke-miterlimit="10" stroke-width="1"/>
      <path id="路径_22" data-name="路径 22" d="M28.41,10.77,25.1,7.46a1.55,1.55,0,0,0-2.2,0l-3.31,3.31" fill="none" stroke="#d1d5e2" stroke-miterlimit="10" stroke-width="1"/>
      <path id="路径_23" data-name="路径 23" d="M10.77,19.59,7.46,22.9a1.55,1.55,0,0,0,0,2.2l3.31,3.31" fill="none" stroke="#d1d5e2" stroke-miterlimit="10" stroke-width="1"/>
      <path id="路径_24" data-name="路径 24" d="M19.59,37.23l3.31,3.31a1.55,1.55,0,0,0,2.2,0l3.31-3.31" fill="none" stroke="#d1d5e2" stroke-miterlimit="10" stroke-width="1"/>
      <path id="路径_25" data-name="路径 25" d="M37.23,28.41l3.31-3.31a1.55,1.55,0,0,0,0-2.2l-3.31-3.31" fill="none" stroke="#d1d5e2" stroke-miterlimit="10" stroke-width="1"/>
      <rect id="矩形_27" data-name="矩形 27" width="18.05" height="18.05" rx="2" transform="translate(11.231 24) rotate(-45)" fill="#d1d5e2"/>
    </g>
  </g>
</svg>